<svg width="100" height="100" viewBox="0 0 100 100" fill="none" xmlns="http://www.w3.org/2000/svg">
<path d="M65.625 59.375C65.625 60.2038 65.2958 60.9987 64.7097 61.5848C64.1237 62.1708 63.3288 62.5 62.5 62.5H37.5C36.6712 62.5 35.8763 62.1708 35.2903 61.5848C34.7042 60.9987 34.375 60.2038 34.375 59.375C34.375 58.5462 34.7042 57.7514 35.2903 57.1653C35.8763 56.5793 36.6712 56.25 37.5 56.25H62.5C63.3288 56.25 64.1237 56.5793 64.7097 57.1653C65.2958 57.7514 65.625 58.5462 65.625 59.375ZM62.5 43.75H37.5C36.6712 43.75 35.8763 44.0793 35.2903 44.6653C34.7042 45.2514 34.375 46.0462 34.375 46.875C34.375 47.7038 34.7042 48.4987 35.2903 49.0848C35.8763 49.6708 36.6712 50 37.5 50H62.5C63.3288 50 64.1237 49.6708 64.7097 49.0848C65.2958 48.4987 65.625 47.7038 65.625 46.875C65.625 46.0462 65.2958 45.2514 64.7097 44.6653C64.1237 44.0793 63.3288 43.75 62.5 43.75ZM84.375 18.75V84.375C84.375 86.0326 83.7165 87.6224 82.5444 88.7945C81.3723 89.9666 79.7826 90.625 78.125 90.625H21.875C20.2174 90.625 18.6277 89.9666 17.4556 88.7945C16.2835 87.6224 15.625 86.0326 15.625 84.375V18.75C15.625 17.0924 16.2835 15.5027 17.4556 14.3306C18.6277 13.1585 20.2174 12.5 21.875 12.5H36.0391C37.7949 10.5341 39.9462 8.96121 42.3521 7.88426C44.7579 6.80731 47.3641 6.25061 50 6.25061C52.6359 6.25061 55.2421 6.80731 57.6479 7.88426C60.0538 8.96121 62.2051 10.5341 63.9609 12.5H78.125C79.7826 12.5 81.3723 13.1585 82.5444 14.3306C83.7165 15.5027 84.375 17.0924 84.375 18.75ZM37.5 25H62.5C62.5 21.6848 61.183 18.5054 58.8388 16.1612C56.4946 13.817 53.3152 12.5 50 12.5C46.6848 12.5 43.5054 13.817 41.1612 16.1612C38.817 18.5054 37.5 21.6848 37.5 25ZM78.125 18.75H67.6758C68.3866 20.7571 68.7499 22.8708 68.75 25V28.125C68.75 28.9538 68.4208 29.7487 67.8347 30.3348C67.2487 30.9208 66.4538 31.25 65.625 31.25H34.375C33.5462 31.25 32.7513 30.9208 32.1653 30.3348C31.5792 29.7487 31.25 28.9538 31.25 28.125V25C31.2501 22.8708 31.6134 20.7571 32.3242 18.75H21.875V84.375H78.125V18.75Z" fill="#FFF4D8"/>
</svg>
