<svg width="24" height="24" viewBox="0 0 24 24" fill="none" xmlns="http://www.w3.org/2000/svg">
<path d="M19 0.999817H5C3.67441 1.0014 2.40356 1.5287 1.46622 2.46604C0.528882 3.40337 0.00158786 4.67422 0 5.99982L0 17.9998C0.00158786 19.3254 0.528882 20.5963 1.46622 21.5336C2.40356 22.4709 3.67441 22.9982 5 22.9998H19C20.3256 22.9982 21.5964 22.4709 22.5338 21.5336C23.4711 20.5963 23.9984 19.3254 24 17.9998V5.99982C23.9984 4.67422 23.4711 3.40337 22.5338 2.46604C21.5964 1.5287 20.3256 1.0014 19 0.999817ZM5 2.99982H19C19.5988 3.00099 20.1835 3.18133 20.679 3.51762C21.1744 3.85391 21.5579 4.33076 21.78 4.88682L14.122 12.5458C13.5584 13.1071 12.7954 13.4223 12 13.4223C11.2046 13.4223 10.4416 13.1071 9.878 12.5458L2.22 4.88682C2.44215 4.33076 2.82561 3.85391 3.32105 3.51762C3.81648 3.18133 4.40121 3.00099 5 2.99982ZM19 20.9998H5C4.20435 20.9998 3.44129 20.6837 2.87868 20.1211C2.31607 19.5585 2 18.7955 2 17.9998V7.49982L8.464 13.9598C9.40263 14.8961 10.6743 15.4219 12 15.4219C13.3257 15.4219 14.5974 14.8961 15.536 13.9598L22 7.49982V17.9998C22 18.7955 21.6839 19.5585 21.1213 20.1211C20.5587 20.6837 19.7956 20.9998 19 20.9998Z" fill="#FFF4D8"/>
</svg>
