<svg width="30" height="30" viewBox="0 0 30 30" fill="none" xmlns="http://www.w3.org/2000/svg">
<g clip-path="url(#clip0_6159_35)">
<path d="M22.377 0C22.5367 0 22.8931 0.000418937 23.1758 0.0126953C23.852 0.0372855 24.7134 0.0858094 25.1191 0.171875C25.7092 0.294826 26.275 0.479314 26.7422 0.712891C27.2954 0.99566 27.7865 1.35293 28.2168 1.7832C28.6471 2.21348 29.0043 2.70462 29.2871 3.25781C29.5207 3.72503 29.7052 4.2911 29.8281 4.89355C29.9019 5.28707 29.9627 6.14768 29.9873 6.81152C29.9996 7.08185 30 7.43811 30 7.61035L29.9873 22.3896C29.9873 22.5496 29.9879 22.9059 29.9756 23.1885C29.951 23.8646 29.9015 24.725 29.8154 25.1309C29.6925 25.721 29.508 26.2867 29.2744 26.7539C28.9916 27.3071 28.6354 27.7992 28.2051 28.2295C27.7748 28.6598 27.2827 29.0161 26.7295 29.2988C26.2624 29.5324 25.697 29.7169 25.0947 29.8398C24.7013 29.9136 23.8397 29.9754 23.1758 30C22.9053 30.0123 22.549 30.0127 22.377 30.0127H7.61035C7.45038 30.0127 7.09412 30.0123 6.81152 30C6.13541 29.9754 5.27497 29.9259 4.86914 29.8398C4.27898 29.7169 3.7133 29.5324 3.24609 29.2988C2.69282 29.016 2.20084 28.6598 1.77051 28.2295C1.34018 27.7992 0.983959 27.3072 0.701172 26.7539C0.467612 26.2868 0.283106 25.7215 0.160156 25.1191C0.0863988 24.7258 0.0245989 23.8651 0 23.2012V7.61035C4.93253e-09 7.45037 0.000409353 7.09413 0.0126953 6.81152C0.0372855 6.14759 0.0981045 5.2743 0.171875 4.88086C0.294826 4.29078 0.479314 3.72497 0.712891 3.25781C0.99566 2.70462 1.35293 2.21348 1.7832 1.7832C2.21348 1.35293 2.70462 0.99566 3.25781 0.712891C3.72503 0.479284 4.2911 0.294826 4.89355 0.171875C5.28707 0.0858311 6.14808 0.0372821 6.82422 0.0126953C7.09449 0.000427514 7.45045 4.94505e-09 7.61035 0H22.377ZM15.332 3.94629C9.4058 3.94629 4.57422 8.76655 4.57422 14.7051C4.57425 16.5985 5.06601 18.4552 6.0127 20.0781L4.4873 25.6475L10.1924 24.1475C11.7662 25.0081 13.5369 25.4512 15.332 25.4512C21.2582 25.4511 26.0898 20.6309 26.0898 14.6924C26.0898 11.8277 24.971 9.12239 22.9424 7.09375C20.9138 5.0653 18.2089 3.94631 15.332 3.94629ZM15.332 5.75391C17.7172 5.75393 19.967 6.68868 21.6514 8.37305C23.3357 10.0574 24.2705 12.3072 24.2705 14.6924C24.2705 19.635 20.2623 23.6435 15.332 23.6436C13.7215 23.6436 12.1479 23.2128 10.7832 22.4014L10.4512 22.2051L7.06934 23.0898L7.9668 19.7949L7.75781 19.4512C6.86027 18.0249 6.39355 16.3768 6.39355 14.6924C6.39367 9.76215 10.4018 5.75391 15.332 5.75391ZM11.5449 9.7373C11.3605 9.73734 11.0778 9.79909 10.832 10.0693C10.5861 10.3398 9.88477 10.992 9.88477 12.3076C9.8849 13.6352 10.8441 14.9013 10.9795 15.0859C11.1147 15.2704 12.8728 17.9755 15.5654 19.1436C16.2048 19.4263 16.7091 19.586 17.1025 19.709C17.7417 19.9179 18.3317 19.8808 18.7988 19.8193C19.3152 19.7456 20.3855 19.1681 20.6191 18.541C20.8403 17.9143 20.8397 17.3738 20.7783 17.2627C20.6923 17.152 20.5078 17.0776 20.2373 16.9424C19.9659 16.8067 18.6511 16.1554 18.4053 16.0693C18.1596 15.9834 17.9757 15.9348 17.8037 16.2051C17.6193 16.4756 17.1149 17.0783 16.9551 17.2627C16.7953 17.4469 16.6473 17.4594 16.377 17.3242C16.1065 17.189 15.2457 16.9059 14.2129 15.9961C13.4139 15.2831 12.8728 14.398 12.7129 14.1396C12.5531 13.8692 12.7007 13.7212 12.8359 13.5859C12.9589 13.463 13.1069 13.2667 13.2422 13.1191C13.3774 12.9593 13.4266 12.8479 13.5127 12.6758C13.5985 12.4916 13.561 12.3441 13.4873 12.209C13.4255 12.073 12.8853 10.7453 12.6641 10.2168C12.4428 9.68848 12.2213 9.76227 12.0615 9.75C11.9017 9.7377 11.7293 9.7373 11.5449 9.7373Z" fill="#FFF4D8"/>
</g>
<defs>
<clipPath id="clip0_6159_35">
<rect width="30" height="30" fill="white"/>
</clipPath>
</defs>
</svg>
