<svg width="30" height="30" viewBox="0 0 30 30" fill="none" xmlns="http://www.w3.org/2000/svg">
<path d="M15 0C23.2843 0 30 6.71573 30 15C30 23.2843 23.2843 30 15 30C6.71573 30 5.1544e-07 23.2843 0 15C0 6.71573 6.71573 5.15439e-07 15 0ZM12.9297 15.8955L5.71484 23.6904H7.33887L13.6553 16.8662L18.7598 23.6904H24.2852L16.7119 13.5645L23.4277 6.30957H21.8037L15.9863 12.5938L11.2861 6.30957H5.75977L12.9297 15.8955ZM21.8965 22.4941H19.3584L8.14844 7.50488H10.6865L21.8965 22.4941Z" fill="#FFF4D8"/>
</svg>
